<?xml version="1.0" standalone="no"?>
<!DOCTYPE svg PUBLIC "-//W3C//DTD SVG 20010904//EN"
 "http://www.w3.org/TR/2001/REC-SVG-20010904/DTD/svg10.dtd">
<svg version="1.0" xmlns="http://www.w3.org/2000/svg"
 width="277.000000pt" height="277.000000pt" viewBox="0 0 277.000000 277.000000"
 preserveAspectRatio="xMidYMid meet">
<metadata>
Created by potrace 1.11, written by Peter Selinger 2001-2013
</metadata>
<g transform="translate(0.000000,277.000000) scale(0.100000,-0.100000)"
fill="#000000" stroke="none">
<path d="M434 2298 c24 -35 249 -352 498 -705 249 -353 455 -642 458 -642 3 0
216 300 475 666 259 366 483 683 498 704 l29 39 -1002 0 -1001 0 45 -62z
m1012 -353 c88 -26 154 -116 154 -210 0 -123 -94 -215 -220 -215 -203 0 -296
237 -148 378 34 32 99 60 144 61 11 1 43 -6 70 -14z"/>
<path d="M117 2153 c-9 -21 -12 -205 -12 -763 l0 -735 24 -53 c30 -66 113
-144 177 -166 43 -14 158 -16 1074 -16 916 0 1031 2 1074 16 64 22 147 100
177 166 l24 53 3 715 c2 564 0 724 -11 760 l-13 44 -498 -704 c-275 -388 -512
-722 -528 -742 -16 -21 -55 -50 -90 -67 -131 -66 -276 -29 -364 93 -25 33
-262 368 -527 743 -265 375 -485 682 -490 683 -4 0 -13 -12 -20 -27z"/>
</g>
</svg>
