<?xml version="1.0" standalone="no"?>
<!DOCTYPE svg PUBLIC "-//W3C//DTD SVG 20010904//EN"
 "http://www.w3.org/TR/2001/REC-SVG-20010904/DTD/svg10.dtd">
<svg version="1.0" xmlns="http://www.w3.org/2000/svg"
 width="700.000000pt" height="700.000000pt" viewBox="0 0 700.000000 700.000000"
 preserveAspectRatio="xMidYMid meet">
<metadata>
Created by potrace 1.11, written by Peter Selinger 2001-2013
</metadata>
<g transform="translate(0.000000,700.000000) scale(0.100000,-0.100000)"
fill="#000000" stroke="none">
<path d="M1098 5985 c-2 -2 -26 -5 -55 -9 -100 -12 -208 -61 -291 -132 -78
-66 -155 -193 -178 -291 -11 -49 -13 -197 -3 -238 5 -22 12 -48 14 -59 7 -32
46 -106 127 -245 43 -73 78 -135 78 -138 0 -3 8 -17 18 -31 11 -15 32 -52 49
-82 17 -30 63 -111 103 -180 40 -68 81 -140 92 -158 70 -126 357 -621 384
-664 13 -21 24 -39 24 -42 0 -2 30 -55 66 -117 80 -137 483 -836 498 -864 6
-11 16 -27 22 -35 6 -8 25 -40 41 -70 17 -30 173 -302 347 -605 175 -302 348
-602 384 -665 129 -225 285 -333 497 -343 122 -6 242 27 345 97 71 48 108 89
158 176 11 19 103 177 204 350 102 173 196 335 210 360 14 25 39 68 56 95 27
44 221 378 250 430 6 11 31 54 55 95 24 41 55 95 69 120 27 47 155 269 192
331 11 20 50 86 85 148 35 62 65 111 66 109 2 -2 5 -37 6 -78 5 -156 57 -278
164 -385 115 -115 250 -167 414 -161 211 9 389 124 480 311 57 119 56 91 55
1336 0 629 -4 1160 -8 1179 -4 19 -19 64 -33 100 -121 305 -476 440 -773 293
-102 -50 -179 -129 -263 -270 -37 -62 -67 -117 -67 -123 0 -5 -4 -10 -8 -10
-4 0 -13 -12 -20 -27 -6 -16 -20 -41 -30 -58 -11 -16 -47 -79 -82 -140 -142
-247 -162 -281 -171 -295 -19 -31 -199 -343 -199 -346 0 -1 -34 -60 -75 -129
-41 -70 -75 -128 -75 -130 0 -2 -36 -63 -79 -138 -43 -74 -90 -154 -103 -178
-24 -41 -99 -171 -302 -523 -47 -82 -86 -151 -86 -154 0 -3 -6 -13 -14 -21 -8
-9 -26 -38 -40 -66 -15 -27 -31 -57 -37 -65 -5 -8 -47 -80 -92 -160 -168 -293
-220 -380 -226 -380 -5 0 -74 118 -182 309 -14 25 -59 102 -99 171 -40 69 -84
145 -98 170 -14 25 -45 78 -69 118 -24 41 -43 76 -43 78 0 2 -11 21 -24 42
-13 20 -66 111 -119 202 -52 91 -153 266 -225 390 -71 124 -139 241 -150 260
-11 19 -37 64 -57 100 -21 36 -48 83 -60 105 -13 22 -120 209 -240 415 -119
206 -258 446 -308 533 -130 226 -204 296 -372 352 -57 19 -187 39 -197 30z"/>
<path d="M5429 2115 c-247 -66 -426 -304 -418 -554 3 -80 31 -189 67 -254 59
-109 190 -220 307 -260 197 -67 418 -19 564 123 173 168 221 394 131 621 -53
136 -209 278 -345 314 -16 5 -37 10 -45 13 -33 10 -218 8 -261 -3z"/>
</g>
</svg>
