<?xml version="1.0" encoding="utf-8"?>
<!-- Generator: Adobe Illustrator 23.0.1, SVG Export Plug-In . SVG Version: 6.00 Build 0)  -->
<svg version="1.1" id="Слой_1" xmlns="http://www.w3.org/2000/svg" xmlns:xlink="http://www.w3.org/1999/xlink" x="0px" y="0px"
	 viewBox="0 0 1000 1000" style="enable-background:new 0 0 1000 1000;" xml:space="preserve">
<style type="text/css">
	.st0{fill:#FFFFFF;}
	.st1{fill:url(#SVGID_1_);}
	.st2{fill:url(#SVGID_2_);}
	.st3{fill:url(#SVGID_3_);}
</style>
<circle class="st0" cx="899.71" cy="847.07" r="99.36"/>
<path class="st0" d="M898.8,643.65h1.81c54.66,0,99.38-44.72,99.38-99.38l0-390.41c0-54.66-44.72-99.38-99.38-99.38l-1.81,0
	c-54.66,0-99.38,44.72-99.38,99.38l0,390.41C799.42,598.93,844.14,643.65,898.8,643.65z"/>
<linearGradient id="SVGID_1_" gradientUnits="userSpaceOnUse" x1="899.7088" y1="643.649" x2="899.7088" y2="54.4684">
	<stop  offset="0" style="stop-color:#F2F2F2;stop-opacity:0"/>
	<stop  offset="0.7022" style="stop-color:#CCCCCC;stop-opacity:0.7"/>
</linearGradient>
<path class="st1" d="M898.8,643.65h1.81c54.66,0,99.38-44.72,99.38-99.38l0-390.41c0-54.66-44.72-99.38-99.38-99.38l-1.81,0
	c-54.66,0-99.38,44.72-99.38,99.38l0,390.41C799.42,598.93,844.14,643.65,898.8,643.65z"/>
<path class="st0" d="M448.7,932.02l2,1.15c47.49,27.42,108.78,11,136.2-36.49l399.55-692.04c27.42-47.49,11-108.78-36.49-136.2
	l-2-1.15c-47.49-27.42-108.78-11-136.2,36.49L412.2,795.82C384.78,843.31,401.2,904.6,448.7,932.02z"/>
<linearGradient id="SVGID_2_" gradientUnits="userSpaceOnUse" x1="398.9197" y1="500.2311" x2="999.7229" y2="500.2311">
	<stop  offset="4.469206e-03" style="stop-color:#4D4D4D;stop-opacity:0.4"/>
	<stop  offset="1" style="stop-color:#FFFFFF;stop-opacity:0"/>
</linearGradient>
<path class="st2" d="M448.7,932.02l2,1.15c47.49,27.42,108.78,11,136.2-36.49l399.55-692.04c27.42-47.49,11-108.78-36.49-136.2
	l-2-1.15c-47.49-27.42-108.78-11-136.2,36.49L412.2,795.82C384.78,843.31,401.2,904.6,448.7,932.02z"/>
<path class="st0" d="M551.42,932.02l-2,1.15c-47.49,27.42-108.78,11-136.2-36.49L13.67,204.64c-27.42-47.49-11-108.78,36.49-136.2
	l2-1.15c47.49-27.42,108.78-11,136.2,36.49l399.55,692.04C615.33,843.31,598.91,904.6,551.42,932.02z"/>
<linearGradient id="SVGID_3_" gradientUnits="userSpaceOnUse" x1="0.3907" y1="500.2311" x2="601.1939" y2="500.2311">
	<stop  offset="0" style="stop-color:#FFFFFF;stop-opacity:0"/>
	<stop  offset="1" style="stop-color:#8E8E8E;stop-opacity:0.2"/>
</linearGradient>
<path class="st3" d="M551.42,932.02l-2,1.15c-47.49,27.42-108.78,11-136.2-36.49L13.67,204.64c-27.42-47.49-11-108.78,36.49-136.2
	l2-1.15c47.49-27.42,108.78-11,136.2,36.49l399.55,692.04C615.33,843.31,598.91,904.6,551.42,932.02z"/>
</svg>
