<?xml version="1.0" encoding="utf-8"?>
<!-- Generator: Adobe Illustrator 23.0.1, SVG Export Plug-In . SVG Version: 6.00 Build 0)  -->
<svg version="1.1" id="Слой_1" xmlns="http://www.w3.org/2000/svg" x="0px" y="0px"
     viewBox="0 0 773 268" style="enable-background:new 0 0 773 268;" xml:space="preserve">
<style type="text/css">
	.st0{fill:#FFFFFF;}
	.st1{fill:#DB1616;}
</style>
    <g>
	<path class="st0" d="M398.4,66.1l-43.5,121.3h-4.5L309.9,72.9h-10.7l41.1,114.5h-7.2L289.5,66.1h25.1l38.1,107.3l36-100.5h-10.7
		l-25.4,71.5l-3.6-10.3l24.1-68.1H398.4z"/>
        <path class="st0" d="M427.5,88.9v91.7h10.2V98.2h6.8v89.3h-23.8V82.1h17v-9.2h-17v-6.8h23.8v22.8H427.5z"/>
        <path class="st0" d="M565,177.1c-10.6,7.1-23,12.1-39,12.1c-33.7,0-53.1-27.5-53.1-61.3v-2.3c0-1.7,0.1-3.4,0.2-5h17.1
		c1.5-20.3,13.9-40.2,34.9-40.2c10.2,0,16.5,2.4,23.2,6.6l4.7-8.4c-8.4-5.1-17.3-7.4-28.3-7.4c-24.2,0-39,18.5-43.4,40.2h-7
		c4.8-25.2,22.2-47,50.4-47c15.5,0,26.7,4.1,37.3,12.1l-11.3,20.3c-8.4-6-14-9.6-25.5-9.6c-18.1,0-28.4,19.4-28.4,38.4v1.8h-17v0.5
		c0,28.4,15.3,54.5,46.3,54.5c10.7,0,20.4-2.5,30-7.8l-4.5-8.7c-7,4-15.2,7.2-24.8,7.2c-22.1,0-33.6-17.3-36.2-36.6h6.9
		c2.3,15.6,11.2,29.8,29.3,29.8c10.5,0,19.3-4.6,27.5-10L565,177.1z"/>
        <path class="st0"
              d="M654.2,164.6v22.8h-67.1v-6.8h60.3v-9.2h-60.3V66.1H611v89.3h-6.8V72.9H594v91.7L654.2,164.6L654.2,164.6z"/>
        <path class="st0" d="M760.5,66.1l-39.2,71.7v49.7h-23.8v-36.3h6.8v29.5h10.2V136L749,72.9h-11.3l-37.8,69l-41.6-75.8h26.9l18.5,34
		l-3.9,7.1l-18.7-34.3h-11.3l30.1,54.8l33.7-61.7L760.5,66.1L760.5,66.1z"/>
</g>
    <rect x="104" y="45" class="st0" width="118" height="118"/>
    <rect x="152" y="91" class="st1" width="118" height="118"/>
</svg>
