<?xml version="1.0" encoding="utf-8"?>
<!-- Generator: Adobe Illustrator 23.0.1, SVG Export Plug-In . SVG Version: 6.00 Build 0)  -->
<svg version="1.1" xmlns="http://www.w3.org/2000/svg" xmlns:xlink="http://www.w3.org/1999/xlink" x="0px" y="0px"
	 viewBox="0 0 1000 1000" style="enable-background:new 0 0 1000 1000;" xml:space="preserve">
<style type="text/css">
	.st0{opacity:0;fill:#FFFFFF;}
	.st1{fill:url(#SVGID_1_);}
	.st2{fill:url(#SVGID_2_);}
</style>
<g id="Слой_2">
	<rect class="st0" width="1000" height="1000"/>
</g>
<g id="Слой_1">
	<g>
		<linearGradient id="SVGID_1_" gradientUnits="userSpaceOnUse" x1="715.6771" y1="775.3428" x2="875.0765" y2="775.3428">
			<stop  offset="0" style="stop-color:#108C80"/>
			<stop  offset="0.1525" style="stop-color:#106F80"/>
			<stop  offset="1" style="stop-color:#104B67"/>
		</linearGradient>
		<circle class="st1" cx="795.4" cy="775.3" r="79.7"/>
		<linearGradient id="SVGID_2_" gradientUnits="userSpaceOnUse" x1="79.9021" y1="500" x2="875.0766" y2="500">
			<stop  offset="0" style="stop-color:#108C80"/>
			<stop  offset="0.7201" style="stop-color:#106F80"/>
			<stop  offset="1" style="stop-color:#104B67"/>
		</linearGradient>
		<path class="st2" d="M875.1,225.3c0-0.5,0-1.1,0-1.6c0-0.1,0-0.2,0-0.3c-0.1-5.1-0.7-10.1-1.8-14.9c0-0.1,0-0.2-0.1-0.3
			c-0.2-1.1-0.5-2.1-0.8-3.2c-0.2-0.7-0.4-1.4-0.6-2.2c-0.1-0.4-0.2-0.8-0.3-1.1c-5.7-18.5-18.1-34.9-36-45.2l-1.6-0.9
			c-37.8-21.8-86.6-8.7-108.4,29l-248,429.6l-248-429.6c-21.8-37.8-70.6-50.9-108.4-29l-1.6,0.9c-37.8,21.8-50.9,70.6-29,108.4
			l314.8,545.3c3,6.1,6.8,11.7,11.3,16.9c15.4,18.1,37.9,28.1,60.9,28c23,0,45.6-9.9,60.9-28c4.5-5.2,177.3-304.4,177.3-304.4v12.6
			c0,43.4,35.5,78.9,78.9,78.9h1.5c43.4,0,78.9-35.5,78.9-78.9L875.1,225.3z"/>
	</g>
</g>
</svg>
